<?xml version="1.0" encoding="utf-8"?>
<!-- Generator: Adobe Illustrator 16.0.0, SVG Export Plug-In . SVG Version: 6.00 Build 0)  -->
<!DOCTYPE svg PUBLIC "-//W3C//DTD SVG 1.1 Tiny//EN" "http://www.w3.org/Graphics/SVG/1.1/DTD/svg11-tiny.dtd">
<svg version="1.1" baseProfile="tiny" id="Calque_1"
	 xmlns="http://www.w3.org/2000/svg" xmlns:xlink="http://www.w3.org/1999/xlink" x="0px" y="0px" width="211.416px"
	 height="143.786px" viewBox="0 0 211.416 143.786" overflow="scroll" xml:space="preserve">
<g>
	<path fill="#455D77" d="M124.931,31.502L110.46,50.461l9.263-22.123c0.23-1.15,1.151-1.813,1.813-1.813
		c0.23,0,0.432,0.23,0.893,0.432l1.352,0.662l1.354,0.662C126.312,29.029,126.081,30.122,124.931,31.502z M105.311,52.273
		l4.057-31.847c0.432-2.243-0.23-3.826-1.813-3.826h-2.043c-0.432,0-2.474,0-2.474,0c-1.582,0-2.243,1.352-1.812,3.826
		L105.311,52.273z M110.949,86.795c1.352,3.164,1.813,5.206,1.813,8.111v26.41v3.624c0,1.151-0.892,2.244-2.244,2.244H98.78
		c-1.352,0-2.244-0.893-2.244-2.244v-3.624v-3.827h-62.57v3.827v3.624c0,1.151-0.892,2.244-2.244,2.244H19.928
		c-1.352,0-2.244-0.893-2.244-2.244v-3.624v-26.41c0-2.963,0.432-5.207,1.813-8.111l14.671-30.696
		c1.583-3.625,6.099-6.53,10.155-6.53h41.541c4.057,0,8.602,2.963,10.414,6.53L110.949,86.795z M30.773,85.471h68.611L89.459,64.27
		c-2.042-4.057-3.826-4.977-8.112-4.977H48.839c-0.661,0-1.151,0-1.582,0c-3.165,0.432-4.747,1.582-6.3,4.977L30.773,85.471z
		 M40.267,100.804c0-4.056-3.395-7.22-7.451-7.22c-4.056,0-7.221,3.164-7.221,7.22c0,4.057,3.165,7.452,7.221,7.452
		C36.872,108.256,40.267,104.889,40.267,100.804z M104.822,100.804c0-4.056-3.395-7.22-7.451-7.22s-7.221,3.164-7.221,7.22
		c0,4.057,3.165,7.452,7.221,7.452C101.427,108.284,104.822,104.889,104.822,100.804z M100.334,52.475l-9.263-22.123
		c-0.432-1.151-1.151-1.813-1.813-1.813c-0.23,0-0.431,0-0.662,0c-0.23,0-0.23,0.23-0.432,0.23l-1.352,0.662l-1.151,0.892
		c-1.151,0.662-0.892,1.813,0.23,3.165L100.334,52.475z M193.081,95.828l-6.788,25.518l-0.893,3.394
		c-0.231,1.151-1.582,1.813-2.704,1.583l-11.277-2.963c-1.15-0.23-1.813-1.583-1.581-2.704l0.892-3.396l1.149-3.624l-55.78-14.902
		v-4.285c0-1.813-0.229-3.827-0.661-5.64c2.963-0.229,5.639-2.243,6.529-5.437c1.151-3.826-1.352-7.883-5.207-9.033
		c-2.474-0.432-4.977,0.23-6.789,1.813l-5.207-10.846c0.23-0.23,0.431-0.662,0.661-0.892l22.123-25.747
		c2.042-2.474,5.437-3.826,8.602-4.057c1.15,0,2.042,0,2.963,0.23l39.527,10.155c4.057,1.151,7.681,5.208,8.343,9.033l6.3,33.429
		C194.002,90.851,193.801,93.153,193.081,95.828z M183.387,84.12l-4.286-23.015c-0.892-4.488-2.475-5.869-6.53-7.02l-31.386-8.601
		c-1.583-0.432-2.704-0.432-3.826-0.432c-1.813,0.23-3.396,1.352-5.208,3.395l-15.361,17.807L183.387,84.12z M179.101,91.34
		c-0.432-0.23-0.892-0.23-1.353-0.23c-0.46,0-0.892,0-1.352,0c-2.963,0.23-5.438,2.244-6.099,5.438
		c-1.15,3.826,1.15,7.882,4.977,9.033c3.826,1.15,7.882-1.353,9.033-5.207C185.4,96.49,182.955,92.433,179.101,91.34z"/>
</g>
</svg>
