<?xml version="1.0" encoding="utf-8"?>
<!-- Generator: Adobe Illustrator 16.0.0, SVG Export Plug-In . SVG Version: 6.00 Build 0)  -->
<!DOCTYPE svg PUBLIC "-//W3C//DTD SVG 1.1 Tiny//EN" "http://www.w3.org/Graphics/SVG/1.1/DTD/svg11-tiny.dtd">
<svg version="1.1" baseProfile="tiny" id="Calque_1"
	 xmlns="http://www.w3.org/2000/svg" xmlns:xlink="http://www.w3.org/1999/xlink" x="0px" y="0px" width="86px" height="72px"
	 viewBox="0 0 86 72" overflow="scroll" xml:space="preserve">
<path fill="#455D77" d="M61.915,31.236c-7.311-0.838-15,4.264-16.447,14.468c-0.051,0.355-0.094,0.719-0.127,1.086h-0.432
	c0.621-6.921,3.488-11.723,5.203-14.917c2.223-4.14,0.418-8.219-0.459-10.043c-0.998-2.07-5.514-10.438-6.664-13.273
	c-1.148,2.836-5.631,11.203-6.628,13.273c-0.879,1.824-2.684,5.903-0.46,10.043c1.703,3.173,4.584,8.028,5.252,14.917h-0.492
	c-0.033-0.367-0.076-0.73-0.127-1.086C39.087,35.5,31.396,30.398,24.086,31.236c-8.177,0.937-12.565,13.858,0.076,16.981
	c-2.057-3.809,1.142-10.662,8.528-6.777c2.402,1.263,4.076,3.281,4.768,5.35h-1.237c-1.167,0-2.113,0.686-2.113,1.531
	s0.946,1.532,2.113,1.532h1.507c-0.124,0.667-0.377,1.299-0.772,1.866c-1.752,2.514-7.618,1.143-4.345-4.34
	c-5.533-0.729-7.005,4.492-5.405,7.311c1.757,3.592,9.434,4.668,12.339-0.457c0.696-1.23,1.046-2.77,1.159-4.38h0.593
	c-0.005,1.218-0.081,2.489-0.243,3.819c-1.941,1.25-1.186,3.947-3.643,5.559c1.544,0.041,2.804-0.262,3.21-0.83
	c0,1.649,1.476,3.04,2.438,5.042c0.893-2.013,2.332-3.696,2.332-5.042c0.406,0.568,1.666,0.871,3.211,0.83
	c-2.254-1.381-1.365-3.914-3.57-5.723c-0.156-1.273-0.23-2.49-0.242-3.655h0.508c0.111,1.61,0.463,3.149,1.158,4.38
	c2.904,5.125,10.582,4.049,12.338,0.457c1.6-2.818,0.129-8.039-5.404-7.311c3.273,5.482-2.594,6.854-4.346,4.34
	c-0.395-0.567-0.648-1.199-0.771-1.866h1.623c1.168,0,2.113-0.687,2.113-1.532s-0.945-1.531-2.113-1.531h-1.354
	c0.691-2.068,2.365-4.087,4.768-5.35c7.387-3.885,10.586,2.969,8.529,6.777C74.479,45.095,70.09,32.173,61.915,31.236z"/>
</svg>
